<svg data-name="Layer 1" id="Layer_1" viewBox="0 0 100 100" xmlns="http://www.w3.org/2000/svg"><defs><style>.cls-1{fill:#1a1818}</style></defs><circle class="cls-1" cx="61.02" cy="39.33" r="5.5"/><circle class="cls-1" cx="38.98" cy="39.33" r="5.5"/><path class="cls-1" d="M34.72 55.79h30.55v10H34.72z"/><path class="cls-1" d="M86.08 32a10.68 10.68 0 0 0 1.86-6c0-8.86-8.22-15.91-8.57-16.2l-2.26-1.99-2.26 1.91A29.37 29.37 0 0 0 70.13 15a40.39 40.39 0 1 0 15.95 17zM50 80.35a30.35 30.35 0 0 1 0-60.7 30 30 0 0 1 16.35 4.81c0 .48-.07 1-.07 1.46a10.84 10.84 0 0 0 10.83 10.83h.18A30.07 30.07 0 0 1 80.35 50 30.39 30.39 0 0 1 50 80.35zm27.11-50.6a3.84 3.84 0 0 1-3.83-3.83 12.74 12.74 0 0 1 2.58-6.87c.41-.6.83-1.15 1.25-1.65a17.31 17.31 0 0 1 3.54 6.39 8.22 8.22 0 0 1 .29 2.13 3.84 3.84 0 0 1-3.83 3.83z"/></svg>