<svg data-name="Layer 1" id="Layer_1" viewBox="0 0 100 100" xmlns="http://www.w3.org/2000/svg"><defs><style>.cls-1{fill:#1a1818}</style></defs><path class="cls-1" d="M50 9.65A40.35 40.35 0 1 0 90.35 50 40.39 40.39 0 0 0 50 9.65zm0 70.7A30.35 30.35 0 1 1 80.35 50 30.39 30.39 0 0 1 50 80.35z"/><circle class="cls-1" cx="38.98" cy="39.33" r="5.5"/><circle class="cls-1" cx="61.02" cy="39.33" r="5.5"/><path class="cls-1" d="M61.12 64.94a16.25 16.25 0 0 1-22.25 0C36 62.18 34.33 58.28 35 54.5a30.46 30.46 0 0 0 8.19 3.88 25 25 0 0 0 6.8 1 24.58 24.58 0 0 0 6.8-1A30.4 30.4 0 0 0 65 54.5c.66 3.78-1 7.66-3.88 10.44z"/></svg>