<?xml version="1.0" ?><svg data-name="Layer 1" id="Layer_1" viewBox="0 0 100 100" xmlns="http://www.w3.org/2000/svg"><defs><style>.cls-1{fill:#1a1818;}</style></defs><title/><circle class="cls-1" cx="61.02" cy="39.33" r="5.5"/><circle class="cls-1" cx="38.98" cy="39.33" r="5.5"/><rect class="cls-1" height="10" width="30.55" x="34.72" y="55.79"/><path class="cls-1" d="M86.08,32a10.68,10.68,0,0,0,1.86-6c0-8.86-8.22-15.91-8.57-16.2L77.11,7.81,74.85,9.72A29.37,29.37,0,0,0,70.13,15,40.39,40.39,0,1,0,86.08,32ZM50,80.35a30.35,30.35,0,0,1,0-60.7,30,30,0,0,1,16.35,4.81c0,.48-.07,1-.07,1.46A10.84,10.84,0,0,0,77.11,36.75h.18A30.07,30.07,0,0,1,80.35,50,30.39,30.39,0,0,1,50,80.35Zm27.11-50.6a3.84,3.84,0,0,1-3.83-3.83,12.74,12.74,0,0,1,2.58-6.87c.41-.6.83-1.15,1.25-1.65a17.31,17.31,0,0,1,3.54,6.39,8.22,8.22,0,0,1,.29,2.13A3.84,3.84,0,0,1,77.11,29.75Z"/></svg>